<svg width="32" height="33" viewBox="0 0 32 33" fill="none" xmlns="http://www.w3.org/2000/svg">
<rect width="32" height="33" fill="#F5F5F5"/>
<rect width="1440" height="3765" transform="translate(-1174 -3652)" fill="white"/>
<circle cx="16" cy="16.7158" r="15.5" fill="#D9D9D9" stroke="#D9D9D9"/>
<path fill-rule="evenodd" clip-rule="evenodd" d="M16 8C13.5556 8 13.2496 8.0102 12.2896 8.054C11.3314 8.0978 10.6768 8.2502 10.1044 8.4728C9.5044 8.6984 8.9602 9.0524 8.5102 9.5108C8.05253 9.96028 7.69831 10.5041 7.4722 11.1044C7.2508 11.6768 7.0978 12.332 7.054 13.2902C7.0108 14.2496 7 14.555 7 17C7 19.445 7.0102 19.7504 7.054 20.7104C7.0978 21.6686 7.2502 22.3232 7.4728 22.8956C7.6984 23.4956 8.0524 24.0398 8.5108 24.4898C8.96029 24.9475 9.50411 25.3017 10.1044 25.5278C10.6768 25.7498 11.3314 25.9022 12.2896 25.946C13.2496 25.9898 13.5556 26 16 26C18.4444 26 18.7504 25.9898 19.7104 25.946C20.6686 25.9022 21.3232 25.7498 21.8956 25.5272C22.4956 25.3016 23.0398 24.9476 23.4898 24.4892C23.9475 24.0397 24.3017 23.4959 24.5278 22.8956C24.7498 22.3232 24.9022 21.6686 24.946 20.7104C24.9898 19.7504 25 19.4444 25 17C25 14.5556 24.9898 14.2496 24.946 13.2896C24.9022 12.3314 24.7498 11.6768 24.5272 11.1044C24.3012 10.5038 23.947 9.95979 23.4892 9.5102C23.0397 9.05253 22.4959 8.69831 21.8956 8.4722C21.3232 8.2508 20.668 8.0978 19.7098 8.054C18.7504 8.0108 18.445 8 16 8ZM16 9.6218C18.403 9.6218 18.688 9.6308 19.6372 9.674C20.5144 9.7142 20.9908 9.86 21.3082 9.9842C21.7282 10.1468 22.0282 10.3424 22.3432 10.6568C22.6582 10.9718 22.8532 11.2718 23.0158 11.6918C23.1394 12.0092 23.2858 12.4856 23.326 13.3628C23.3692 14.312 23.3782 14.597 23.3782 17C23.3782 19.403 23.3692 19.688 23.326 20.6372C23.2858 21.5144 23.14 21.9908 23.0158 22.3082C22.8718 22.6991 22.6419 23.0528 22.3432 23.3432C22.0528 23.642 21.6992 23.8718 21.3082 24.0158C20.9908 24.1394 20.5144 24.2858 19.6372 24.326C18.688 24.3692 18.4036 24.3782 16 24.3782C13.5964 24.3782 13.312 24.3692 12.3628 24.326C11.4856 24.2858 11.0092 24.14 10.6918 24.0158C10.3009 23.8718 9.9472 23.6419 9.6568 23.3432C9.35811 23.0528 9.12828 22.6991 8.9842 22.3082C8.8606 21.9908 8.7142 21.5144 8.674 20.6372C8.6308 19.688 8.6218 19.403 8.6218 17C8.6218 14.597 8.6308 14.312 8.674 13.3628C8.7142 12.4856 8.86 12.0092 8.9842 11.6918C9.1468 11.2718 9.3424 10.9718 9.6568 10.6568C9.94716 10.358 10.3008 10.1282 10.6918 9.9842C11.0092 9.8606 11.4856 9.7142 12.3628 9.674C13.312 9.6308 13.597 9.6218 16 9.6218V9.6218Z" fill="black"/>
<path fill-rule="evenodd" clip-rule="evenodd" d="M16 20.003C15.6057 20.003 15.2152 19.9254 14.8508 19.7744C14.4865 19.6235 14.1554 19.4023 13.8766 19.1235C13.5977 18.8446 13.3765 18.5136 13.2256 18.1492C13.0747 17.7849 12.997 17.3944 12.997 17C12.997 16.6057 13.0747 16.2152 13.2256 15.8508C13.3765 15.4865 13.5977 15.1554 13.8766 14.8766C14.1554 14.5977 14.4865 14.3765 14.8508 14.2256C15.2152 14.0747 15.6057 13.997 16 13.997C16.7965 13.997 17.5603 14.3134 18.1235 14.8766C18.6866 15.4398 19.003 16.2036 19.003 17C19.003 17.7965 18.6866 18.5603 18.1235 19.1235C17.5603 19.6866 16.7965 20.003 16 20.003ZM16 12.374C14.7731 12.374 13.5965 12.8614 12.7289 13.729C11.8614 14.5965 11.374 15.7731 11.374 17C11.374 18.2269 11.8614 19.4036 12.7289 20.2711C13.5965 21.1387 14.7731 21.626 16 21.626C17.2269 21.626 18.4036 21.1387 19.2711 20.2711C20.1386 19.4036 20.626 18.2269 20.626 17C20.626 15.7731 20.1386 14.5965 19.2711 13.729C18.4036 12.8614 17.2269 12.374 16 12.374ZM21.9718 12.29C21.9718 12.58 21.8566 12.8582 21.6515 13.0633C21.4465 13.2683 21.1683 13.3835 20.8783 13.3835C20.5883 13.3835 20.3102 13.2683 20.1051 13.0633C19.9 12.8582 19.7848 12.58 19.7848 12.29C19.7848 12 19.9 11.7219 20.1051 11.5168C20.3102 11.3117 20.5883 11.1965 20.8783 11.1965C21.1683 11.1965 21.4465 11.3117 21.6515 11.5168C21.8566 11.7219 21.9718 12 21.9718 12.29Z" fill="black"/>
<rect x="-1193.5" y="-3671.5" width="1479" height="7589" rx="4.5" stroke="#9747FF" stroke-dasharray="10 5"/>
</svg>
